<?xml version="1.0" standalone="no"?>
<!DOCTYPE svg PUBLIC "-//W3C//DTD SVG 20010904//EN"
 "http://www.w3.org/TR/2001/REC-SVG-20010904/DTD/svg10.dtd">
<svg version="1.0" xmlns="http://www.w3.org/2000/svg"
 width="512.000000pt" height="512.000000pt" viewBox="0 0 512.000000 512.000000"
 preserveAspectRatio="xMidYMid meet">
<metadata>
Created by potrace 1.14, written by Peter Selinger 2001-2017
</metadata>
<g transform="translate(0.000000,512.000000) scale(0.100000,-0.100000)"
fill="#000000" stroke="none">
<path d="M540 5107 c-49 -16 -133 -102 -148 -153 -9 -32 -12 -577 -12 -2400
l0 -2359 24 -51 c27 -58 83 -110 141 -130 34 -12 354 -14 2026 -14 l1985 0 53
26 c55 28 89 66 115 128 15 35 16 257 13 2420 -2 2311 -3 2382 -21 2416 -24
45 -71 88 -121 111 -39 18 -113 18 -2030 18 -1424 -1 -2000 -4 -2025 -12z"/>
</g>
</svg>
